<svg width="169" height="169" viewBox="0 0 169 169" fill="none" xmlns="http://www.w3.org/2000/svg">
<path d="M84.4362 126.103C107.448 126.103 126.103 107.448 126.103 84.4362C126.103 61.4243 107.448 42.7695 84.4362 42.7695C61.4243 42.7695 42.7695 61.4243 42.7695 84.4362C42.7695 107.448 61.4243 126.103 84.4362 126.103Z" fill="url(#paint0_linear_2992_4032)"/>
<g filter="url(#filter0_f_2992_4032)">
<path d="M84.4348 114.87C101.243 114.87 114.87 101.243 114.87 84.4348C114.87 67.6261 101.243 54 84.4348 54C67.6261 54 54 67.6261 54 84.4348C54 101.243 67.6261 114.87 84.4348 114.87Z" fill="url(#paint1_linear_2992_4032)"/>
</g>
<path fill-rule="evenodd" clip-rule="evenodd" d="M81.572 50.5882C82.2691 50.5882 82.8343 50.0231 82.8343 49.326C82.8343 48.629 82.2691 48.0639 81.572 48.0639C80.8749 48.0639 80.31 48.629 80.31 49.326C80.31 50.0231 80.8749 50.5882 81.572 50.5882ZM81.572 51.5349C82.7919 51.5349 83.781 50.546 83.781 49.326C83.781 48.1061 82.7919 47.1172 81.572 47.1172C80.352 47.1172 79.3633 48.1061 79.3633 49.326C79.3633 50.546 80.352 51.5349 81.572 51.5349Z" fill="white"/>
<path fill-rule="evenodd" clip-rule="evenodd" d="M51.4999 108.559C52.197 108.559 52.7621 107.994 52.7621 107.297C52.7621 106.599 52.197 106.035 51.4999 106.035C50.8028 106.035 50.2377 106.599 50.2377 107.297C50.2377 107.994 50.8028 108.559 51.4999 108.559ZM51.4999 109.506C52.7198 109.506 53.7087 108.517 53.7087 107.297C53.7087 106.077 52.7198 105.088 51.4999 105.088C50.28 105.088 49.291 106.077 49.291 107.297C49.291 108.517 50.28 109.506 51.4999 109.506Z" fill="white"/>
<path fill-rule="evenodd" clip-rule="evenodd" d="M120.703 105.66C121.4 105.66 121.965 105.095 121.965 104.398C121.965 103.701 121.4 103.136 120.703 103.136C120.006 103.136 119.441 103.701 119.441 104.398C119.441 105.095 120.006 105.66 120.703 105.66ZM120.703 106.607C121.923 106.607 122.912 105.618 122.912 104.398C122.912 103.178 121.923 102.189 120.703 102.189C119.483 102.189 118.494 103.178 118.494 104.398C118.494 105.618 119.483 106.607 120.703 106.607Z" fill="white"/>
<path d="M61.0268 56.2435C61.1196 55.8589 61.6667 55.8589 61.7595 56.2435L62.072 57.5379C62.1052 57.6754 62.2125 57.7827 62.3499 57.8159L63.6443 58.1283C64.0289 58.2212 64.0289 58.7682 63.6443 58.8611L62.3499 59.1735C62.2125 59.2067 62.1052 59.314 62.072 59.4515L61.7595 60.7459C61.6667 61.1305 61.1196 61.1305 61.0268 60.7459L60.7143 59.4515C60.6811 59.314 60.5738 59.2067 60.4364 59.1735L59.142 58.8611C58.7574 58.7682 58.7574 58.2212 59.142 58.1283L60.4364 57.8159C60.5738 57.7827 60.6811 57.6754 60.7143 57.5379L61.0268 56.2435Z" fill="white"/>
<path d="M114.615 112.91C114.716 112.488 115.316 112.488 115.418 112.91L115.76 114.329C115.797 114.479 115.914 114.597 116.065 114.633L117.484 114.976C117.905 115.078 117.905 115.677 117.484 115.779L116.065 116.122C115.914 116.158 115.797 116.276 115.76 116.426L115.418 117.845C115.316 118.267 114.716 118.267 114.615 117.845L114.272 116.426C114.236 116.276 114.118 116.158 113.968 116.122L112.549 115.779C112.127 115.677 112.127 115.078 112.549 114.976L113.968 114.633C114.118 114.597 114.236 114.479 114.272 114.329L114.615 112.91Z" fill="url(#paint2_linear_2992_4032)"/>
<path d="M55.0981 118.217C55.5778 118.14 55.9608 118.611 55.7875 119.065L54.6175 122.129C54.4442 122.583 53.8446 122.679 53.5382 122.302L51.4701 119.757C51.1637 119.38 51.3804 118.813 51.8601 118.736L55.0981 118.217Z" fill="url(#paint3_linear_2992_4032)"/>
<path d="M116.674 59.4381C116.555 58.9674 116.989 58.5432 117.457 58.6746L120.614 59.5618C121.081 59.6932 121.232 60.2817 120.884 60.621L118.537 62.9115C118.189 63.2508 117.605 63.0865 117.485 62.6158L116.674 59.4381Z" fill="url(#paint4_linear_2992_4032)"/>
<path d="M106.163 81.4319L99.3178 82.7627C97.37 83.141 96.0982 85.0268 96.4769 86.9743C96.8555 88.9218 98.741 90.1935 100.688 89.8153L107.534 88.4845C109.482 88.1058 110.753 86.2203 110.375 84.2729C109.996 82.3254 108.111 81.0533 106.163 81.4319Z" fill="url(#paint5_linear_2992_4032)"/>
<path d="M108.853 84.9444C108.887 84.0578 108.197 83.3111 107.31 83.2766C106.423 83.2419 105.676 83.9328 105.642 84.8194C105.607 85.706 106.298 86.4527 107.185 86.4875C108.072 86.5219 108.818 85.831 108.853 84.9444Z" fill="#EBEBEB"/>
<path d="M107.414 85.7446C107.891 85.6519 108.202 85.1903 108.11 84.7138C108.017 84.237 107.556 83.9258 107.079 84.0182C106.602 84.1109 106.291 84.5725 106.384 85.0494C106.476 85.5258 106.938 85.8374 107.414 85.7446Z" fill="#DBDBDB"/>
<path d="M95.309 70.6122L60.3564 77.4064C58.3921 77.7879 57.1093 79.6901 57.4911 81.6542L62.2136 105.949C62.5954 107.914 64.4972 109.196 66.4615 108.814L101.414 102.021C103.379 101.639 104.661 99.7368 104.28 97.7723L99.5569 73.4774C99.1754 71.5133 97.2735 70.2304 95.309 70.6122Z" fill="url(#paint6_linear_2992_4032)"/>
<path d="M94.6694 59.5663L101.809 78.0213C102.209 79.0528 101.695 80.2129 100.665 80.6119L71.3962 91.9354C70.3664 92.3347 69.2062 91.8209 68.8064 90.7894L61.6668 72.3343C61.2962 71.3742 61.7723 70.2953 62.7327 69.9248L92.2589 58.5027C93.2194 58.1321 94.298 58.6082 94.6687 59.5686L94.6694 59.5663Z" fill="url(#paint7_linear_2992_4032)"/>
<path d="M96.0461 77.2597C96.412 78.2086 95.9414 79.2756 94.9924 79.6416C94.0439 80.0079 92.9765 79.5369 92.6106 78.588C92.2443 77.6394 92.7153 76.5724 93.6642 76.2061C94.6127 75.8401 95.6801 76.3112 96.0461 77.2597Z" fill="url(#paint8_linear_2992_4032)"/>
<path d="M98.1592 76.4412C98.5255 77.3901 98.0545 78.4571 97.1059 78.8234C96.157 79.1894 95.09 78.7184 94.7237 77.7698C94.3577 76.8209 94.8287 75.7539 95.7773 75.3879C96.7262 75.0216 97.7932 75.4926 98.1592 76.4412Z" fill="url(#paint9_linear_2992_4032)"/>
<path d="M70.4902 70.5664L65.6948 72.4215C65.3082 72.5711 65.116 73.0059 65.2656 73.3925L66.3805 76.2744C66.5301 76.6609 66.9648 76.8533 67.3514 76.7037L72.1467 74.8483C72.5336 74.699 72.7256 74.2642 72.576 73.8776L71.4611 70.9957C71.3115 70.609 70.8767 70.4168 70.4902 70.5664Z" fill="url(#paint10_linear_2992_4032)"/>
<path d="M92.3153 64.8207L89.5113 65.9046C88.8624 66.1538 88.1341 65.8323 87.883 65.1839C87.6341 64.5348 87.9555 63.8065 88.604 63.5557L91.4077 62.4717C92.0562 62.2209 92.7852 62.5441 93.0359 63.1925C93.2852 63.8415 92.9635 64.5699 92.3153 64.8207Z" fill="white"/>
<path d="M67.9323 80.9621L67.7363 81.2096C67.7363 81.2096 67.7201 81.2273 67.7085 81.2317C67.6851 81.2407 67.66 81.2349 67.6436 81.2223C67.6124 81.1958 67.6083 81.1552 67.6342 81.128L67.9 80.7831C67.9225 80.757 67.9681 80.7512 67.994 80.7737C68.0081 80.7857 68.0155 80.7998 68.0203 80.8172L68.6593 82.4672C68.6722 82.5005 68.658 82.5386 68.6213 82.5527C68.5879 82.5654 68.5487 82.548 68.5359 82.5146L67.9356 80.9607L67.9323 80.9621Z" fill="#F8F8F8"/>
<path d="M69.0788 82.2502L69.6243 81.1676C69.6886 81.0357 69.6946 80.8919 69.6453 80.7632C69.603 80.6531 69.519 80.5592 69.405 80.5013C69.2765 80.4361 69.1298 80.4328 69.0053 80.4824C68.8918 80.5263 68.7965 80.6067 68.7371 80.7216L68.6811 80.835C68.6657 80.8694 68.6233 80.8839 68.5937 80.8665C68.5591 80.8509 68.5447 80.8089 68.5621 80.7792L68.6174 80.664C68.6925 80.5205 68.8161 80.4136 68.9579 80.3592C69.1147 80.2987 69.2963 80.298 69.4637 80.385C69.6124 80.4582 69.7162 80.5792 69.7694 80.7176C69.8303 80.8763 69.8283 81.0607 69.7453 81.2284L69.2783 82.1563L70.1292 81.8295C70.162 81.815 70.2006 81.831 70.2147 81.8676C70.2275 81.9009 70.21 81.9404 70.1766 81.9531L69.1751 82.3411L69.1651 82.3451C69.1468 82.3524 69.1265 82.3542 69.1114 82.3447C69.0771 82.3252 69.0624 82.2868 69.0778 82.2524L69.0788 82.2502Z" fill="#F8F8F8"/>
<path d="M71.0736 79.6695L70.7939 80.3263C70.916 80.3064 71.045 80.318 71.1653 80.3716C71.3291 80.4445 71.4493 80.5781 71.5095 80.735C71.5696 80.8919 71.5714 81.0713 71.4968 81.2358C71.424 81.3999 71.2907 81.5216 71.1345 81.5836C70.9812 81.6423 70.8019 81.6441 70.6373 81.5695C70.6033 81.5557 70.5863 81.5166 70.6027 81.4796C70.6158 81.4437 70.6559 81.4285 70.6928 81.4448C70.8233 81.5003 70.9628 81.5003 71.0863 81.4528C71.2099 81.4053 71.3153 81.3111 71.3747 81.1814C71.433 81.0495 71.4309 80.9089 71.3834 80.7854C71.3359 80.6618 71.2421 80.5564 71.1117 80.5013C70.9816 80.4419 70.841 80.4445 70.7175 80.4916C70.6975 80.4995 70.6751 80.4963 70.6561 80.4865L70.6528 80.4879C70.6164 80.4731 70.6004 80.4314 70.6175 80.3959L70.8863 79.7644L70.1972 80.0289C70.1611 80.0448 70.1218 80.0274 70.1084 79.9923C70.0943 79.9557 70.1118 79.9162 70.1468 79.9028L70.9878 79.58C71.0236 79.5644 71.0631 79.5818 71.0765 79.6169C71.0805 79.6267 71.0809 79.6383 71.0791 79.6484C71.0791 79.6579 71.0765 79.6666 71.0733 79.6734L71.0736 79.6695Z" fill="#F8F8F8"/>
<path d="M73.0903 80.3997L72.1175 80.7769L72.1091 80.7802C72.0957 80.7853 72.0794 80.7878 72.0657 80.7816C72.0294 80.7726 72.0102 80.732 72.024 80.6979L72.5635 79.0016L72.5653 78.9968C72.578 78.9595 72.6117 78.9429 72.649 78.9552C72.662 78.9599 72.6718 78.9697 72.6805 78.9776C72.6823 78.9827 72.687 78.9845 72.6878 78.9863L72.691 78.9947L73.1675 80.2266L73.2878 80.1802C73.3244 80.1664 73.3639 80.1838 73.3765 80.2171C73.3892 80.2505 73.3718 80.2896 73.3367 80.303L73.2168 80.3494L73.3352 80.6581C73.3479 80.6914 73.3305 80.7305 73.2954 80.7439C73.262 80.757 73.2229 80.7392 73.2099 80.7059L73.0914 80.3972L73.0903 80.3997ZM73.0432 80.2762L72.6356 79.2247L72.1936 80.6063L73.0443 80.2795L73.0432 80.2762Z" fill="#F8F8F8"/>
<path d="M75.4156 79.7211C75.3794 79.7062 75.3634 79.6646 75.3812 79.6309C75.3968 79.5964 75.4377 79.5787 75.4729 79.5957C75.6033 79.6512 75.7431 79.6512 75.8663 79.6037C75.9899 79.5562 76.0921 79.4635 76.1508 79.3319C76.2095 79.2001 76.2076 79.0609 76.1602 78.9377C76.1124 78.8124 76.0182 78.7069 75.8888 78.6493C75.7602 78.5935 75.6189 78.5943 75.4953 78.6414C75.37 78.6896 75.2663 78.783 75.2076 78.9146C75.1921 78.9493 75.1504 78.9653 75.1174 78.9493C75.1073 78.9475 75.0989 78.941 75.095 78.9348L75.0935 78.9316C75.0935 78.9316 75.0884 78.928 75.087 78.9247C75.0819 78.9207 75.0787 78.9124 75.0761 78.9059C75.0747 78.9026 75.0743 78.8968 75.0725 78.8917L74.879 78.1334C74.8714 78.1135 74.875 78.0928 74.8863 78.0772C74.8924 78.0631 74.9055 78.0526 74.9221 78.0461L75.7598 77.7247C75.7957 77.7088 75.8348 77.7262 75.8486 77.7613C75.8631 77.7997 75.845 77.8374 75.8102 77.8508L75.0258 78.1519L75.1685 78.7135C75.2392 78.6229 75.3334 78.5544 75.4421 78.5127C75.5989 78.4526 75.7736 78.4486 75.9403 78.5243C76.1076 78.5961 76.2232 78.7276 76.2848 78.8877C76.3435 79.0414 76.35 79.2229 76.2736 79.3881C76.2 79.5501 76.0653 79.6729 75.9102 79.7323C75.7533 79.7925 75.5739 79.7943 75.4102 79.7214L75.4156 79.7211Z" fill="#F8F8F8"/>
<path d="M76.6532 77.8311C76.693 77.5652 76.8376 77.3239 77.1318 77.1974C77.164 77.1815 77.2032 77.1989 77.2195 77.2311C77.2332 77.2677 77.2159 77.3068 77.1832 77.3213C76.9351 77.4282 76.8267 77.6191 76.7847 77.8496C76.7633 77.9782 76.772 78.1206 76.7963 78.2586C76.8575 78.0934 76.9851 77.9525 77.1622 77.8847C77.4941 77.7572 77.8611 77.9206 77.9869 78.2478C78.113 78.5764 77.951 78.9427 77.6213 79.0713C77.2995 79.1949 76.9401 79.042 76.8061 78.7278C76.7865 78.6912 76.7717 78.6528 76.7557 78.6112C76.6659 78.372 76.6137 78.0912 76.655 77.8304L76.6532 77.8311ZM76.9274 78.6695C76.9325 78.6829 76.9398 78.6916 76.9452 78.701C76.9485 78.7094 76.9503 78.7144 76.9488 78.7206C77.0684 78.9373 77.3347 79.0376 77.5702 78.9474C77.8322 78.847 77.9608 78.5543 77.8622 78.2974C77.7637 78.0405 77.4709 77.9115 77.209 78.0123C76.9521 78.1108 76.8231 78.4032 76.922 78.6605L76.9256 78.6702L76.9274 78.6695Z" fill="#F8F8F8"/>
<path d="M78.8351 78.5039L78.8894 76.6702L78.0199 77.0039C77.9872 77.018 77.9485 77.0025 77.9358 76.9691C77.9231 76.9358 77.9405 76.8963 77.9738 76.8836L78.9249 76.5184C78.9362 76.5083 78.9481 76.5039 78.9633 76.5039C78.9815 76.5064 79.0007 76.5162 79.0115 76.5293C79.018 76.5365 79.0217 76.5409 79.0242 76.5474C79.0293 76.5608 79.0296 76.572 79.0267 76.5847L78.9706 78.5072C78.9695 78.5343 78.9517 78.5586 78.9286 78.5673C78.9184 78.5713 78.9133 78.5731 78.9014 78.572C78.8648 78.5709 78.8351 78.5383 78.8333 78.5043L78.8351 78.5039Z" fill="#F8F8F8"/>
<path d="M79.9479 76.1047C80.1533 76.0261 80.3873 76.1276 80.4663 76.3326C80.5142 76.458 80.4942 76.5899 80.4294 76.6953C80.6761 76.7 80.9069 76.8526 81 77.0946C81.1243 77.4181 80.9656 77.7779 80.6424 77.9036C80.3203 78.0276 79.9591 77.8692 79.8334 77.5464C79.7402 77.3044 79.8084 77.037 79.9844 76.8681C79.8681 76.8341 79.7663 76.7489 79.7185 76.6236C79.6395 76.4185 79.7384 76.187 79.9471 76.1069L79.9479 76.1047ZM80.596 77.7779C80.8529 77.6794 80.9754 77.3949 80.8783 77.1413C80.7815 76.8895 80.4986 76.7605 80.2413 76.8594C79.9877 76.9565 79.8627 77.2439 79.9594 77.496C80.0573 77.7511 80.3424 77.8754 80.596 77.7779ZM80.1906 76.7315C80.3276 76.675 80.3975 76.5181 80.3446 76.3794C80.2913 76.241 80.1355 76.1743 79.9971 76.2276C79.8587 76.2808 79.7913 76.4348 79.8446 76.5732C79.8979 76.7116 80.0529 76.7823 80.1921 76.7308L80.1906 76.7315Z" fill="#F8F8F8"/>
<path d="M83.1411 74.8698C83.4498 74.7513 83.7872 74.8824 83.9339 75.1647C83.939 75.1687 83.9404 75.1719 83.944 75.1763C83.9658 75.2234 83.9875 75.2745 84.0078 75.3277C84.0995 75.5665 84.1513 75.8509 84.1132 76.1107C84.0716 76.3716 83.9256 76.619 83.6346 76.744L83.6314 76.7455C83.5948 76.7596 83.5567 76.7455 83.5437 76.7122C83.5299 76.6752 83.5444 76.639 83.5799 76.6216C83.8241 76.5143 83.9401 76.3227 83.9785 76.0933C83.9984 75.9614 83.9944 75.8212 83.9669 75.6843C83.9056 75.8495 83.7759 75.9853 83.5959 76.0545C83.2687 76.1799 82.902 76.0223 82.7727 75.6908C82.6473 75.364 82.8107 74.9966 83.1379 74.8712L83.1411 74.8698ZM83.8393 75.2777C83.7408 75.0209 83.4509 74.8944 83.189 74.9951C82.9321 75.0937 82.8027 75.3846 82.9006 75.6401C83.0013 75.902 83.2919 76.0256 83.5488 75.927C83.8107 75.8266 83.9401 75.5397 83.8375 75.2781L83.8393 75.2777Z" fill="#F8F8F8"/>
<path d="M84.5433 75.362C84.4505 75.1204 84.4259 74.8769 84.4715 74.666C84.5201 74.4639 84.6346 74.2936 84.8165 74.2236C84.9983 74.1537 85.1991 74.203 85.3701 74.3193C85.5425 74.4446 85.694 74.6392 85.7886 74.8805C85.8813 75.1222 85.9009 75.3675 85.8556 75.5744C85.8078 75.7783 85.6936 75.9504 85.5117 76.0204C85.3299 76.0899 85.1291 76.0407 84.957 75.9211C84.7842 75.8001 84.6357 75.6026 84.5425 75.3606L84.5433 75.362ZM84.6683 75.3142C84.7531 75.5345 84.8893 75.7099 85.036 75.8124C85.1817 75.9135 85.3353 75.9446 85.4639 75.895C85.5922 75.8457 85.6817 75.7196 85.7244 75.5465C85.7628 75.3725 85.7483 75.1504 85.6639 74.9302C85.5795 74.7099 85.4396 74.5356 85.2947 74.4323C85.1454 74.3273 84.9954 74.3004 84.8668 74.3497C84.7382 74.399 84.6436 74.5215 84.6063 74.6986C84.5679 74.8722 84.5857 75.0932 84.6708 75.3153L84.6683 75.3142Z" fill="#F8F8F8"/>
<path d="M86.3404 73.8428L86.1448 74.0906C86.1448 74.0906 86.1285 74.108 86.1169 74.1127C86.0933 74.1218 86.0683 74.116 86.0517 74.1033C86.0205 74.0768 86.0165 74.0363 86.0426 74.0091L86.3082 73.6638C86.331 73.6381 86.3763 73.6319 86.4024 73.6547C86.4165 73.6663 86.4238 73.6808 86.4285 73.6982L87.0676 75.3479C87.0803 75.3816 87.0662 75.4192 87.0296 75.4334C86.9962 75.4464 86.9571 75.4287 86.9441 75.3953L86.3441 73.8417L86.3404 73.8428Z" fill="#F8F8F8"/>
<path d="M87.4873 75.1286L88.0326 74.0464C88.0971 73.9145 88.1029 73.7703 88.0536 73.6421C88.0112 73.5319 87.9275 73.4377 87.8134 73.3801C87.6848 73.3145 87.538 73.3116 87.4137 73.3613C87.3003 73.4047 87.2054 73.487 87.1453 73.6L87.0895 73.7134C87.0739 73.7482 87.0315 73.7623 87.0021 73.7449C86.9674 73.7297 86.9529 73.6873 86.9703 73.6576L87.0257 73.5428C87.1007 73.3989 87.2242 73.2921 87.3656 73.2359C87.5224 73.1757 87.704 73.175 87.8713 73.262C88.0199 73.3352 88.1239 73.4562 88.1771 73.5946C88.238 73.7529 88.2358 73.9377 88.1529 74.1055L87.6858 75.0334L88.5369 74.7065C88.5695 74.6921 88.609 74.7094 88.6224 74.7446C88.6351 74.7779 88.6177 74.817 88.5844 74.8301L87.5829 75.2181L87.5728 75.2221C87.5543 75.229 87.534 75.2312 87.5192 75.2218C87.4848 75.2022 87.4699 75.1638 87.4855 75.1294L87.4873 75.1286Z" fill="#F8F8F8"/>
<path d="M91.0191 71.9527L90.7391 72.6099C90.8615 72.5896 90.9905 72.6012 91.1104 72.6548C91.2746 72.7277 91.3949 72.8613 91.455 73.0182C91.5152 73.1751 91.517 73.3545 91.4423 73.519C91.3691 73.6831 91.2362 73.8048 91.0815 73.8661C90.9282 73.9251 90.747 73.9277 90.5825 73.853C90.5485 73.8392 90.5315 73.7998 90.5481 73.7628C90.5619 73.7287 90.601 73.7117 90.638 73.728C90.7684 73.7835 90.9083 73.7835 91.0318 73.736C91.155 73.6885 91.2608 73.5943 91.3199 73.4646C91.3786 73.3331 91.376 73.1921 91.3289 73.0686C91.2815 72.9454 91.1872 72.8396 91.0568 72.7845C90.9271 72.7251 90.7862 72.7277 90.6626 72.7751C90.6427 72.7827 90.6206 72.7798 90.6014 72.7697L90.5981 72.7711C90.5619 72.7563 90.5456 72.7146 90.563 72.6791L90.8315 72.0479L90.1423 72.3124C90.1065 72.328 90.0673 72.3106 90.0536 72.2755C90.0398 72.2389 90.0572 72.1994 90.092 72.186L90.9329 71.8632C90.9691 71.8476 91.0083 71.865 91.0217 71.9001C91.0257 71.9103 91.026 71.9215 91.0242 71.9316C91.0242 71.9414 91.0217 71.9498 91.0188 71.9566L91.0191 71.9527Z" fill="#F8F8F8"/>
<path d="M93.0363 72.6842L92.0621 73.0585L92.0592 73.0614L92.0545 73.0632C92.0411 73.0683 92.0255 73.0726 92.011 73.0647C91.9747 73.0556 91.9555 73.015 91.9693 72.981L92.5088 71.2846L92.5106 71.2799C92.5233 71.2426 92.557 71.2259 92.5943 71.2386C92.6074 71.2429 92.6171 71.2527 92.6258 71.2607C92.6276 71.2658 92.6309 71.2683 92.6331 71.2694L92.6363 71.2777L93.1128 72.5096L93.2331 72.4636C93.2697 72.4494 93.3092 72.4668 93.3218 72.5002C93.3345 72.5335 93.3171 72.573 93.282 72.5864L93.1621 72.6324L93.2805 72.9411C93.2932 72.9745 93.2758 73.0136 93.2407 73.027C93.2074 73.04 93.1682 73.0226 93.1552 72.9889L93.0367 72.6802L93.0363 72.6842ZM92.9889 72.561L92.5816 71.5092L92.1392 72.8908L92.9903 72.5643L92.9889 72.561Z" fill="#F8F8F8"/>
<path d="M93.8238 72.6001C93.7876 72.5853 93.7716 72.5436 93.7894 72.5099C93.8046 72.4755 93.8466 72.4592 93.8811 72.4748C94.0115 72.5298 94.151 72.5298 94.2745 72.4827C94.3981 72.4353 94.5003 72.3425 94.559 72.2106C94.6177 72.0791 94.6158 71.94 94.5684 71.8164C94.5202 71.6914 94.4264 71.586 94.297 71.5284C94.1677 71.4708 94.0267 71.4729 93.9035 71.5204C93.7782 71.5686 93.6745 71.6621 93.6159 71.7936C93.6003 71.8284 93.5593 71.8458 93.5256 71.828C93.5155 71.8262 93.5072 71.8201 93.5032 71.8139L93.5017 71.8106C93.5017 71.8106 93.4966 71.807 93.4952 71.8034C93.4898 71.7998 93.4869 71.7914 93.4843 71.7849C93.4829 71.7813 93.4825 71.7758 93.4807 71.7708L93.2872 71.0124C93.2796 70.9922 93.2832 70.9719 93.2945 70.9559C93.3006 70.9422 93.3137 70.9313 93.3303 70.9251L94.1677 70.6035C94.2039 70.5877 94.243 70.6052 94.2564 70.6402C94.2713 70.6787 94.2532 70.7161 94.218 70.7295L93.434 71.0306L93.5767 71.5922C93.6481 71.5037 93.7416 71.4331 93.8503 71.3918C94.0068 71.3313 94.1814 71.3277 94.3485 71.4034C94.5158 71.4751 94.6314 71.6066 94.693 71.7668C94.7517 71.9204 94.7582 72.1016 94.6818 72.2668C94.6082 72.4291 94.4735 72.5516 94.3184 72.6114C94.1615 72.6715 93.9822 72.6733 93.8184 72.6005L93.8238 72.6001Z" fill="#F8F8F8"/>
<path d="M95.0596 70.7101C95.0995 70.444 95.2433 70.2011 95.5382 70.0764C95.5705 70.0603 95.6096 70.0778 95.6256 70.1099C95.6397 70.1466 95.6223 70.1858 95.5897 70.2003C95.3422 70.3087 95.2328 70.498 95.1911 70.7286C95.1698 70.8572 95.1785 70.9992 95.2027 71.1376C95.264 70.9724 95.3915 70.8315 95.5683 70.7637C95.9006 70.6361 96.2676 70.7996 96.3933 71.1264C96.5194 71.4554 96.3574 71.8217 96.0277 71.9503C95.7056 72.0739 95.3466 71.921 95.2125 71.6065C95.1926 71.5702 95.1781 71.5318 95.1622 71.4902C95.0719 71.2507 95.0198 70.9702 95.0614 70.7094L95.0596 70.7101ZM95.3339 71.5485C95.339 71.5619 95.3462 71.5706 95.3516 71.58C95.3549 71.5884 95.3567 71.5934 95.3553 71.5996C95.4748 71.8159 95.7411 71.9166 95.9763 71.8264C96.2382 71.7257 96.3672 71.4333 96.2687 71.1764C96.1701 70.9192 95.8774 70.7905 95.6154 70.8909C95.3585 70.9898 95.2295 71.2822 95.3281 71.5391L95.3321 71.5492L95.3339 71.5485Z" fill="#F8F8F8"/>
<path d="M85.6495 79.5098L69.9766 85.5732L70.2745 86.3431L85.9473 80.2797L85.6495 79.5098Z" fill="url(#paint11_linear_2992_4032)"/>
<path d="M81.7346 82.9922L70.6387 87.2849L70.9365 88.0552L82.0325 83.7625L81.7346 82.9922Z" fill="url(#paint12_linear_2992_4032)"/>
<path d="M85.966 64.5768L78.9204 67.3025C78.7077 67.3848 78.6019 67.6238 78.6841 67.8365C78.7664 68.0491 79.0055 68.1548 79.2182 68.0726L86.2639 65.3468C86.4765 65.2645 86.582 65.0255 86.4997 64.8128C86.4175 64.6002 86.1783 64.4945 85.966 64.5768Z" fill="#3B3B3B"/>
<path d="M98.8783 84.25L62.1562 91.3884L65.0139 106.09L101.736 98.9518L98.8783 84.25Z" fill="url(#paint13_linear_2992_4032)"/>
<path opacity="0.2" d="M98.8783 84.25L62.1562 91.3884L65.0139 106.09L101.736 98.9518L98.8783 84.25Z" fill="black"/>
<path d="M102.27 107.75L66.0899 109.581C64.2885 109.672 62.6944 108.424 62.3502 106.654L57.1421 79.8601C57.0192 79.2279 57.6688 78.7254 58.2499 79.0033C58.9243 79.3254 59.6737 79.4619 60.4205 79.3989L92.922 76.6188C94.7672 76.4609 96.4343 77.7196 96.7875 79.5373L102.271 107.748C102.271 107.749 102.271 107.75 102.27 107.75Z" fill="url(#paint14_linear_2992_4032)"/>
<path d="M94.5848 94.5555C95.4268 94.3921 95.9584 93.4816 95.7718 92.5225C95.5855 91.5635 94.7518 90.9185 93.9098 91.082C93.0678 91.2457 92.5363 92.1559 92.7229 93.1153C92.9095 94.0743 93.7432 94.7193 94.5848 94.5555Z" fill="#EBEBEB"/>
<path d="M94.9562 92.681C95.0428 93.1267 94.7957 93.5499 94.4044 93.6256C94.013 93.7017 93.6254 93.402 93.5388 92.9564C93.4522 92.5111 93.6993 92.0879 94.0906 92.0118C94.4819 91.9357 94.8696 92.2354 94.9562 92.681Z" fill="#DBDBDB"/>
<defs>
<filter id="filter0_f_2992_4032" x="0" y="0" width="168.869" height="168.869" filterUnits="userSpaceOnUse" color-interpolation-filters="sRGB">
<feFlood flood-opacity="0" result="BackgroundImageFix"/>
<feBlend mode="normal" in="SourceGraphic" in2="BackgroundImageFix" result="shape"/>
<feGaussianBlur stdDeviation="27" result="effect1_foregroundBlur_2992_4032"/>
</filter>
<linearGradient id="paint0_linear_2992_4032" x1="54.394" y1="42.7695" x2="117.995" y2="56.009" gradientUnits="userSpaceOnUse">
<stop stop-color="#A259FF"/>
<stop offset="1" stop-color="#3B3B3B"/>
</linearGradient>
<linearGradient id="paint1_linear_2992_4032" x1="63.8551" y1="54" x2="122.717" y2="65.3518" gradientUnits="userSpaceOnUse">
<stop stop-color="#A259FF" stop-opacity="0"/>
<stop offset="1" stop-color="#FF6250"/>
</linearGradient>
<linearGradient id="paint2_linear_2992_4032" x1="116.206" y1="113.831" x2="121.543" y2="118.023" gradientUnits="userSpaceOnUse">
<stop stop-color="#A259FF"/>
<stop offset="1" stop-color="#377DF7"/>
</linearGradient>
<linearGradient id="paint3_linear_2992_4032" x1="55.5928" y1="119.771" x2="55.4145" y2="125.081" gradientUnits="userSpaceOnUse">
<stop stop-color="#A259FF"/>
<stop offset="1" stop-color="#377DF7"/>
</linearGradient>
<linearGradient id="paint4_linear_2992_4032" x1="118.177" y1="58.8045" x2="123.481" y2="58.5003" gradientUnits="userSpaceOnUse">
<stop stop-color="#A259FF"/>
<stop offset="1" stop-color="#377DF7"/>
</linearGradient>
<linearGradient id="paint5_linear_2992_4032" x1="98.0413" y1="83.0105" x2="111.121" y2="85.2721" gradientUnits="userSpaceOnUse">
<stop stop-color="#A259FF"/>
<stop offset="1" stop-color="#3B3B3B"/>
</linearGradient>
<linearGradient id="paint6_linear_2992_4032" x1="89.4348" y1="115.919" x2="75.3047" y2="88.1705" gradientUnits="userSpaceOnUse">
<stop stop-color="#A259FF"/>
<stop offset="1" stop-color="#3B3B3B"/>
</linearGradient>
<linearGradient id="paint7_linear_2992_4032" x1="66.3245" y1="68.4579" x2="100.354" y2="65.5187" gradientUnits="userSpaceOnUse">
<stop stop-color="#A259FF"/>
<stop offset="1" stop-color="#FF6250"/>
</linearGradient>
<linearGradient id="paint8_linear_2992_4032" x1="92.5055" y1="76.651" x2="96.0772" y2="76.0159" gradientUnits="userSpaceOnUse">
<stop stop-color="#A259FF"/>
<stop offset="1" stop-color="#FF6250"/>
</linearGradient>
<linearGradient id="paint9_linear_2992_4032" x1="94.6189" y1="75.8325" x2="98.1903" y2="75.1973" gradientUnits="userSpaceOnUse">
<stop stop-color="#A259FF"/>
<stop offset="1" stop-color="#3B3B3B"/>
</linearGradient>
<linearGradient id="paint10_linear_2992_4032" x1="65.9978" y1="72.3044" x2="72.3854" y2="71.6827" gradientUnits="userSpaceOnUse">
<stop stop-color="#A259FF"/>
<stop offset="1" stop-color="#3B3B3B"/>
</linearGradient>
<linearGradient id="paint11_linear_2992_4032" x1="72.514" y1="84.5913" x2="74.927" y2="87.9815" gradientUnits="userSpaceOnUse">
<stop stop-color="#A259FF"/>
<stop offset="1" stop-color="#FF6250"/>
</linearGradient>
<linearGradient id="paint12_linear_2992_4032" x1="72.435" y1="86.59" x2="75.0828" y2="89.6422" gradientUnits="userSpaceOnUse">
<stop stop-color="#A259FF"/>
<stop offset="1" stop-color="#FF6250"/>
</linearGradient>
<linearGradient id="paint13_linear_2992_4032" x1="68.1017" y1="90.2326" x2="100.795" y2="98.8225" gradientUnits="userSpaceOnUse">
<stop stop-color="#A259FF"/>
<stop offset="1" stop-color="#3B3B3B"/>
</linearGradient>
<linearGradient id="paint14_linear_2992_4032" x1="92.5133" y1="98.8257" x2="35.8778" y2="71.6446" gradientUnits="userSpaceOnUse">
<stop stop-color="#A259FF"/>
<stop offset="0.666667" stop-color="white"/>
</linearGradient>
</defs>
</svg>
