<svg width="164" height="164" viewBox="0 0 164 164" fill="none" xmlns="http://www.w3.org/2000/svg">
<path d="M79.3639 121.031C102.376 121.031 121.031 102.376 121.031 79.3639C121.031 56.3521 102.376 37.6973 79.3639 37.6973C56.352 37.6973 37.6973 56.3521 37.6973 79.3639C37.6973 102.376 56.352 121.031 79.3639 121.031Z" fill="url(#paint0_linear_2992_4176)"/>
<g filter="url(#filter0_f_2992_4176)">
<path d="M81.8986 109.797C97.3065 109.797 109.797 97.3065 109.797 81.8986C109.797 66.4906 97.3065 54 81.8986 54C66.4906 54 54 66.4906 54 81.8986C54 97.3065 66.4906 109.797 81.8986 109.797Z" fill="url(#paint1_linear_2992_4176)"/>
</g>
<path fill-rule="evenodd" clip-rule="evenodd" d="M51.8612 62.182C52.5583 62.182 53.1234 61.6169 53.1234 60.9198C53.1234 60.2227 52.5583 59.6576 51.8612 59.6576C51.1641 59.6576 50.599 60.2227 50.599 60.9198C50.599 61.6169 51.1641 62.182 51.8612 62.182ZM51.8612 63.1287C53.0811 63.1287 54.0701 62.1397 54.0701 60.9198C54.0701 59.6999 53.0811 58.7109 51.8612 58.7109C50.6413 58.7109 49.6523 59.6999 49.6523 60.9198C49.6523 62.1397 50.6413 63.1287 51.8612 63.1287Z" fill="white"/>
<path fill-rule="evenodd" clip-rule="evenodd" d="M47.8768 101.313C48.5739 101.313 49.139 100.748 49.139 100.05C49.139 99.3534 48.5739 98.7885 47.8768 98.7885C47.1797 98.7885 46.6146 99.3534 46.6146 100.05C46.6146 100.748 47.1797 101.313 47.8768 101.313ZM47.8768 102.26C49.0967 102.26 50.0857 101.27 50.0857 100.05C50.0857 98.8306 49.0967 97.8418 47.8768 97.8418C46.6569 97.8418 45.668 98.8306 45.668 100.05C45.668 101.27 46.6569 102.26 47.8768 102.26Z" fill="white"/>
<path fill-rule="evenodd" clip-rule="evenodd" d="M106.572 48.0511C107.269 48.0511 107.834 47.486 107.834 46.7889C107.834 46.0919 107.269 45.5267 106.572 45.5267C105.875 45.5267 105.31 46.0919 105.31 46.7889C105.31 47.486 105.875 48.0511 106.572 48.0511ZM106.572 48.9978C107.792 48.9978 108.781 48.0088 108.781 46.7889C108.781 45.569 107.792 44.5801 106.572 44.5801C105.352 44.5801 104.363 45.569 104.363 46.7889C104.363 48.0088 105.352 48.9978 106.572 48.9978Z" fill="white"/>
<path d="M53.0561 44.6498C53.1489 44.2652 53.696 44.2652 53.7888 44.6498L54.1013 45.9442C54.1345 46.0816 54.2417 46.1889 54.3792 46.2221L55.6736 46.5346C56.0582 46.6274 56.0582 47.1745 55.6736 47.2673L54.3792 47.5798C54.2417 47.613 54.1345 47.7203 54.1013 47.8577L53.7888 49.1521C53.696 49.5367 53.1489 49.5367 53.0561 49.1521L52.7436 47.8577C52.7104 47.7203 52.6031 47.613 52.4657 47.5798L51.1713 47.2673C50.7867 47.1745 50.7867 46.6274 51.1713 46.5346L52.4657 46.2221C52.6031 46.1889 52.7104 46.0816 52.7436 45.9442L53.0561 44.6498Z" fill="white"/>
<path d="M111.353 57.8377C111.454 57.4161 112.054 57.4161 112.156 57.8377L112.499 59.2565C112.535 59.4071 112.653 59.5248 112.803 59.5612L114.222 59.9037C114.644 60.0054 114.644 60.605 114.222 60.7068L112.803 61.0493C112.653 61.0857 112.535 61.2033 112.499 61.354L112.156 62.7728C112.054 63.1944 111.454 63.1944 111.353 62.7728L111.01 61.354C110.974 61.2033 110.856 61.0857 110.706 61.0493L109.287 60.7068C108.865 60.605 108.865 60.0054 109.287 59.9037L110.706 59.5612C110.856 59.5248 110.974 59.4071 111.01 59.2565L111.353 57.8377Z" fill="url(#paint2_linear_2992_4176)"/>
<path d="M49.3012 109.522C49.781 109.445 50.1639 109.916 49.9906 110.37L48.8207 113.434C48.6473 113.888 48.0477 113.984 47.7413 113.606L45.6732 111.061C45.3668 110.685 45.5835 110.117 46.0632 110.04L49.3012 109.522Z" fill="url(#paint3_linear_2992_4176)"/>
<path d="M105.805 102.554C105.685 102.083 106.12 101.659 106.588 101.79L109.745 102.677C110.212 102.809 110.363 103.397 110.015 103.736L107.668 106.027C107.32 106.366 106.736 106.202 106.615 105.731L105.805 102.554Z" fill="url(#paint4_linear_2992_4176)"/>
<g filter="url(#filter1_f_2992_4176)">
<path d="M101.475 111.417C101.475 113.652 90.8703 115.464 77.7891 115.464C64.7079 115.464 54.1035 113.652 54.1035 111.417C54.1035 109.181 64.7079 107.369 77.7891 107.369C90.8703 107.369 101.475 109.181 101.475 111.417Z" fill="url(#paint5_radial_2992_4176)"/>
</g>
<g filter="url(#filter2_i_2992_4176)">
<path d="M78.2498 53.3084L62.8228 56.0286C61.5835 56.2472 60.7559 57.429 60.9744 58.6684L64.8625 80.7187C65.081 81.9582 66.2629 82.7858 67.5023 82.5669L82.9292 79.847C84.1687 79.6285 84.9962 78.4466 84.7777 77.2071L80.8897 55.1568C80.6709 53.9175 79.489 53.0899 78.2498 53.3084Z" fill="url(#paint6_linear_2992_4176)"/>
</g>
<path d="M78.4722 64.6442L66.4882 66.7573C66.0847 66.8285 65.8152 67.2133 65.8864 67.6169L65.8868 67.6192C65.958 68.0228 66.3428 68.2922 66.7463 68.2211L78.7305 66.1079C79.1338 66.0368 79.4033 65.652 79.3323 65.2484L79.3319 65.2461C79.2606 64.8425 78.8758 64.5731 78.4722 64.6442Z" fill="url(#paint7_linear_2992_4176)"/>
<path d="M80.296 74.9413L68.4151 77.0362C68.015 77.1069 67.7466 77.4808 67.8155 77.8717L67.8159 77.8742C67.8848 78.2652 68.265 78.525 68.6651 78.4543L80.546 76.3594C80.9464 76.2887 81.2145 75.9148 81.1457 75.5239L81.1453 75.5213C81.0765 75.1304 80.696 74.8706 80.296 74.9413Z" fill="url(#paint8_linear_2992_4176)"/>
<path d="M79.345 69.5545L67.4639 71.6495C67.0638 71.7201 66.7954 72.094 66.8643 72.485L66.8647 72.4875C66.9336 72.8784 67.3138 73.1382 67.7139 73.0676L79.595 70.9726C79.995 70.902 80.2635 70.5279 80.1947 70.137L80.1943 70.1347C80.1251 69.7437 79.745 69.484 79.345 69.5545Z" fill="url(#paint9_linear_2992_4176)"/>
<path d="M69.5246 58.3578L66.0226 58.9753C65.2469 59.1122 64.7289 59.8519 64.8657 60.6276L65.037 61.5995C65.1738 62.3752 65.9136 62.8932 66.6893 62.7564L70.1913 62.1389C70.967 62.0022 71.4851 61.2624 71.3482 60.4866L71.1768 59.5148C71.0402 58.739 70.3004 58.2211 69.5246 58.3578Z" fill="#A259FF"/>
<g filter="url(#filter3_i_2992_4176)">
<path d="M96.6349 59.3906H76.2241C75.273 59.3906 74.502 60.1617 74.502 61.1128V70.7066C74.502 71.6577 75.273 72.4287 76.2241 72.4287H96.6349C97.586 72.4287 98.357 71.6577 98.357 70.7066V61.1128C98.357 60.1617 97.586 59.3906 96.6349 59.3906Z" fill="url(#paint10_linear_2992_4176)"/>
</g>
<path d="M79.5383 67.8876C80.6318 67.8876 81.5184 67.0011 81.5184 65.9076C81.5184 64.8141 80.6318 63.9277 79.5383 63.9277C78.4448 63.9277 77.5586 64.8141 77.5586 65.9076C77.5586 67.0011 78.4448 67.8876 79.5383 67.8876Z" fill="white"/>
<path d="M86.6148 67.8876C87.7083 67.8876 88.5946 67.0011 88.5946 65.9076C88.5946 64.8141 87.7083 63.9277 86.6148 63.9277C85.5214 63.9277 84.6348 64.8141 84.6348 65.9076C84.6348 67.0011 85.5214 67.8876 86.6148 67.8876Z" fill="white"/>
<path d="M93.691 67.8876C94.7845 67.8876 95.6707 67.0011 95.6707 65.9076C95.6707 64.8141 94.7845 63.9277 93.691 63.9277C92.5975 63.9277 91.7109 64.8141 91.7109 65.9076C91.7109 67.0011 92.5975 67.8876 93.691 67.8876Z" fill="white"/>
<path fill-rule="evenodd" clip-rule="evenodd" d="M75.8188 93.8616C75.9898 92.8909 76.9152 92.2431 77.8859 92.4141L88.0811 94.2119C89.4743 94.4576 90.7333 95.1043 91.6257 96.0391C92.5177 96.9732 93.1221 98.3011 92.863 99.7713C92.6036 101.242 91.5815 102.283 90.4243 102.856C89.2659 103.43 87.8612 103.608 86.4677 103.362L62.2423 99.0905C61.2719 98.9195 60.6239 97.9938 60.795 97.0235C60.9661 96.0529 61.8915 95.405 62.8621 95.5761L87.0877 99.8478C87.8101 99.975 88.4322 99.8605 88.8406 99.6583C89.2493 99.4558 89.3333 99.2391 89.3485 99.1518C89.3638 99.0648 89.3594 98.8333 89.0449 98.5036C88.7304 98.1742 88.1848 97.854 87.4616 97.7264L77.2243 95.5652C76.254 95.3942 75.6474 94.8319 75.8188 93.8616Z" fill="url(#paint11_linear_2992_4176)"/>
<path fill-rule="evenodd" clip-rule="evenodd" d="M95.5116 75.6947C95.8949 74.8712 96.7841 74.4081 97.6786 74.5657L105.671 75.9751C106.763 76.1675 107.492 77.2081 107.299 78.2998C107.107 79.3911 106.066 80.1197 104.975 79.9273L98.4989 78.7853L94.6736 86.9965C94.2058 88.0012 93.012 88.436 92.0073 87.9683C91.0029 87.5001 90.5678 86.3063 91.0359 85.302L95.5116 75.6947Z" fill="url(#paint12_linear_2992_4176)"/>
<path d="M67.0226 106.199C69.3869 106.616 71.6415 105.037 72.0586 102.673C72.4752 100.308 70.8966 98.0541 68.5323 97.6371C66.168 97.2201 63.9133 98.7991 63.4965 101.163C63.0796 103.528 64.6583 105.782 67.0226 106.199Z" fill="url(#paint13_linear_2992_4176)"/>
<path d="M93.6681 79.3235L64.1668 74.1217C61.9554 73.7318 59.9912 75.3195 60.1452 77.3699L60.5136 89.3355C60.6254 90.8166 61.8342 92.0663 63.4313 92.3478L89.1471 98.6177L96.3423 83.7579C98.0003 80.7485 95.8847 79.7144 93.6681 79.3235Z" fill="url(#paint14_linear_2992_4176)"/>
<path d="M67.2797 104.054C68.4675 104.263 69.6002 103.47 69.8096 102.282C70.0191 101.095 69.2259 99.9617 68.0381 99.7523C66.8503 99.5429 65.7176 100.336 65.5082 101.524C65.2987 102.712 66.0919 103.844 67.2797 104.054Z" fill="url(#paint15_linear_2992_4176)"/>
<mask id="mask0_2992_4176" style="mask-type:alpha" maskUnits="userSpaceOnUse" x="60" y="74" width="37" height="25">
<path d="M93.6683 79.3235L64.1668 74.1217C61.9554 73.7318 59.9912 75.3195 60.1452 77.3699L60.5136 89.3355C60.6254 90.8166 61.8342 92.0663 63.4313 92.3478L89.1469 98.6177L96.3425 83.7579C97.1893 81.8786 95.8849 79.7144 93.6683 79.3235Z" fill="url(#paint16_linear_2992_4176)"/>
</mask>
<g mask="url(#mask0_2992_4176)">
<path d="M79.3943 87.214C79.5222 86.5364 80.1754 86.0893 80.8533 86.2143C81.5308 86.3397 81.9765 86.9904 81.8486 87.6676L80.1598 96.5998C80.0319 97.277 79.3787 97.7245 78.7011 97.5991C78.0232 97.4741 77.5776 96.8234 77.7055 96.1462L79.3943 87.214Z" fill="#A259FF"/>
<path d="M101.432 81.4042C101.998 81.5024 102.379 82.0412 102.283 82.6075L102.214 83.0176C102.118 83.5839 101.581 83.9633 101.015 83.8651L59.766 76.701C59.2001 76.6024 58.8192 76.0636 58.9152 75.4977L58.9847 75.0875C59.0807 74.5212 59.6173 74.1419 60.1831 74.2401L101.432 81.4042Z" fill="#A259FF"/>
<path d="M86.3357 88.4676C86.4636 87.7904 87.1168 87.343 87.7944 87.4683C88.4723 87.5937 88.9179 88.2444 88.7896 88.9216L87.1012 97.8538C86.9733 98.531 86.3201 98.9785 85.6422 98.8531C84.9646 98.7281 84.519 98.0774 84.6469 97.4002L86.3357 88.4676Z" fill="#A259FF"/>
<path d="M72.4529 85.9581C72.5808 85.2809 73.234 84.8334 73.9116 84.9584C74.5895 85.0838 75.0351 85.7345 74.9068 86.4117L73.2184 95.3439C73.0905 96.0211 72.4373 96.4686 71.7594 96.3436C71.0818 96.2182 70.6362 95.5675 70.7641 94.8903L72.4529 85.9581Z" fill="#A259FF"/>
<path d="M65.4312 84.7218C65.5592 84.0446 66.2124 83.5971 66.8901 83.7221C67.5679 83.8475 68.0135 84.4982 67.8855 85.1754L66.1969 94.1076C66.0689 94.7848 65.4157 95.2323 64.738 95.1073C64.0602 94.9819 63.6146 94.3312 63.7426 93.654L65.4312 84.7218Z" fill="#A259FF"/>
<path d="M59.3352 74.2464C59.4649 73.5109 60.1661 73.02 60.9014 73.1497L96.952 79.5062C97.6871 79.6359 98.1781 80.3374 98.0484 81.0725C97.9187 81.808 97.2176 82.299 96.4824 82.1693L60.4319 75.8124C59.6966 75.683 59.2056 74.9816 59.3352 74.2464Z" fill="url(#paint17_linear_2992_4176)"/>
</g>
<defs>
<filter id="filter0_f_2992_4176" x="0" y="0" width="163.797" height="163.797" filterUnits="userSpaceOnUse" color-interpolation-filters="sRGB">
<feFlood flood-opacity="0" result="BackgroundImageFix"/>
<feBlend mode="normal" in="SourceGraphic" in2="BackgroundImageFix" result="shape"/>
<feGaussianBlur stdDeviation="27" result="effect1_foregroundBlur_2992_4176"/>
</filter>
<filter id="filter1_f_2992_4176" x="33.4161" y="86.6817" width="88.7459" height="49.4705" filterUnits="userSpaceOnUse" color-interpolation-filters="sRGB">
<feFlood flood-opacity="0" result="BackgroundImageFix"/>
<feBlend mode="normal" in="SourceGraphic" in2="BackgroundImageFix" result="shape"/>
<feGaussianBlur stdDeviation="10.3437" result="effect1_foregroundBlur_2992_4176"/>
</filter>
<filter id="filter2_i_2992_4176" x="60.9395" y="53.2734" width="26.2576" height="34.8921" filterUnits="userSpaceOnUse" color-interpolation-filters="sRGB">
<feFlood flood-opacity="0" result="BackgroundImageFix"/>
<feBlend mode="normal" in="SourceGraphic" in2="BackgroundImageFix" result="shape"/>
<feColorMatrix in="SourceAlpha" type="matrix" values="0 0 0 0 0 0 0 0 0 0 0 0 0 0 0 0 0 0 127 0" result="hardAlpha"/>
<feOffset dx="2.38455" dy="5.56394"/>
<feGaussianBlur stdDeviation="5.96137"/>
<feComposite in2="hardAlpha" operator="arithmetic" k2="-1" k3="1"/>
<feColorMatrix type="matrix" values="0 0 0 0 0.104618 0 0 0 0 0.465612 0 0 0 0 0.545833 0 0 0 0.15 0"/>
<feBlend mode="normal" in2="shape" result="effect1_innerShadow_2992_4176"/>
</filter>
<filter id="filter3_i_2992_4176" x="74.502" y="59.3906" width="29.4813" height="16.7877" filterUnits="userSpaceOnUse" color-interpolation-filters="sRGB">
<feFlood flood-opacity="0" result="BackgroundImageFix"/>
<feBlend mode="normal" in="SourceGraphic" in2="BackgroundImageFix" result="shape"/>
<feColorMatrix in="SourceAlpha" type="matrix" values="0 0 0 0 0 0 0 0 0 0 0 0 0 0 0 0 0 0 127 0" result="hardAlpha"/>
<feOffset dx="5.62585" dy="3.75056"/>
<feGaussianBlur stdDeviation="6.09467"/>
<feComposite in2="hardAlpha" operator="arithmetic" k2="-1" k3="1"/>
<feColorMatrix type="matrix" values="0 0 0 0 0.104618 0 0 0 0 0.465612 0 0 0 0 0.545833 0 0 0 0.09 0"/>
<feBlend mode="normal" in2="shape" result="effect1_innerShadow_2992_4176"/>
</filter>
<linearGradient id="paint0_linear_2992_4176" x1="49.3217" y1="37.6973" x2="112.923" y2="50.9368" gradientUnits="userSpaceOnUse">
<stop stop-color="#A259FF"/>
<stop offset="1" stop-color="#3B3B3B"/>
</linearGradient>
<linearGradient id="paint1_linear_2992_4176" x1="93.8551" y1="104.483" x2="75.2482" y2="102.362" gradientUnits="userSpaceOnUse">
<stop stop-color="#A259FF" stop-opacity="0"/>
<stop offset="1" stop-color="#FF6250"/>
</linearGradient>
<linearGradient id="paint2_linear_2992_4176" x1="112.945" y1="58.7587" x2="118.282" y2="62.9506" gradientUnits="userSpaceOnUse">
<stop stop-color="#A259FF"/>
<stop offset="1" stop-color="#377DF7"/>
</linearGradient>
<linearGradient id="paint3_linear_2992_4176" x1="49.796" y1="111.076" x2="49.6177" y2="116.386" gradientUnits="userSpaceOnUse">
<stop stop-color="#A259FF"/>
<stop offset="1" stop-color="#377DF7"/>
</linearGradient>
<linearGradient id="paint4_linear_2992_4176" x1="107.308" y1="101.92" x2="112.612" y2="101.616" gradientUnits="userSpaceOnUse">
<stop stop-color="#A259FF"/>
<stop offset="1" stop-color="#377DF7"/>
</linearGradient>
<radialGradient id="paint5_radial_2992_4176" cx="0" cy="0" r="1" gradientUnits="userSpaceOnUse" gradientTransform="translate(77.7891 111.417) rotate(90) scale(4.04753 23.6857)">
<stop stop-color="#2B2B2B"/>
<stop offset="1" stop-color="#2B2B2B" stop-opacity="0"/>
</radialGradient>
<linearGradient id="paint6_linear_2992_4176" x1="63.8031" y1="55.8558" x2="83.8669" y2="55.2375" gradientUnits="userSpaceOnUse">
<stop stop-color="#A259FF"/>
<stop offset="1" stop-color="#3B3B3B"/>
</linearGradient>
<linearGradient id="paint7_linear_2992_4176" x1="76.6714" y1="66.0441" x2="75.3544" y2="62.1402" gradientUnits="userSpaceOnUse">
<stop stop-color="#A259FF"/>
<stop offset="0.666667" stop-color="white"/>
</linearGradient>
<linearGradient id="paint8_linear_2992_4176" x1="78.5065" y1="76.3054" x2="77.2428" y2="72.517" gradientUnits="userSpaceOnUse">
<stop stop-color="#A259FF"/>
<stop offset="0.666667" stop-color="white"/>
</linearGradient>
<linearGradient id="paint9_linear_2992_4176" x1="77.5552" y1="70.9187" x2="76.2914" y2="67.1302" gradientUnits="userSpaceOnUse">
<stop stop-color="#A259FF"/>
<stop offset="0.666667" stop-color="white"/>
</linearGradient>
<linearGradient id="paint10_linear_2992_4176" x1="74.502" y1="75.3577" x2="89.1813" y2="53.3265" gradientUnits="userSpaceOnUse">
<stop stop-color="#A259FF"/>
<stop offset="1" stop-color="#FF6250"/>
</linearGradient>
<linearGradient id="paint11_linear_2992_4176" x1="86.1333" y1="100.634" x2="81.1007" y2="77.0145" gradientUnits="userSpaceOnUse">
<stop stop-color="#A259FF"/>
<stop offset="0.666667" stop-color="white"/>
</linearGradient>
<linearGradient id="paint12_linear_2992_4176" x1="102.907" y1="78.7038" x2="114.523" y2="92.2244" gradientUnits="userSpaceOnUse">
<stop stop-color="#A259FF"/>
<stop offset="1" stop-color="#377DF7"/>
</linearGradient>
<linearGradient id="paint13_linear_2992_4176" x1="70.0007" y1="104.227" x2="60.0713" y2="94.0817" gradientUnits="userSpaceOnUse">
<stop stop-color="#A259FF"/>
<stop offset="0.666667" stop-color="white"/>
</linearGradient>
<linearGradient id="paint14_linear_2992_4176" x1="87.4525" y1="92.6351" x2="67.4938" y2="52.8448" gradientUnits="userSpaceOnUse">
<stop stop-color="#A259FF"/>
<stop offset="0.666667" stop-color="white"/>
</linearGradient>
<linearGradient id="paint15_linear_2992_4176" x1="65.1895" y1="102.576" x2="71.3866" y2="103.77" gradientUnits="userSpaceOnUse">
<stop stop-color="white"/>
<stop offset="1" stop-color="#BCF3FF"/>
</linearGradient>
<linearGradient id="paint16_linear_2992_4176" x1="59.8859" y1="78.0699" x2="96.4233" y2="84.9633" gradientUnits="userSpaceOnUse">
<stop stop-color="#AFF1FF"/>
<stop offset="1" stop-color="#65C8DE"/>
</linearGradient>
<linearGradient id="paint17_linear_2992_4176" x1="90.1241" y1="80.2714" x2="90.7183" y2="72.7482" gradientUnits="userSpaceOnUse">
<stop stop-color="#A259FF"/>
<stop offset="0.666667" stop-color="white"/>
</linearGradient>
</defs>
</svg>
