<svg width="169" height="169" viewBox="0 0 169 169" fill="none" xmlns="http://www.w3.org/2000/svg">
<path d="M84.4362 126.103C107.448 126.103 126.103 107.448 126.103 84.4362C126.103 61.4243 107.448 42.7695 84.4362 42.7695C61.4243 42.7695 42.7695 61.4243 42.7695 84.4362C42.7695 107.448 61.4243 126.103 84.4362 126.103Z" fill="url(#paint0_linear_2992_4106)"/>
<g filter="url(#filter0_f_2992_4106)">
<path d="M84.4348 114.87C101.243 114.87 114.87 101.243 114.87 84.4348C114.87 67.6261 101.243 54 84.4348 54C67.6261 54 54 67.6261 54 84.4348C54 101.243 67.6261 114.87 84.4348 114.87Z" fill="url(#paint1_linear_2992_4106)"/>
</g>
<path fill-rule="evenodd" clip-rule="evenodd" d="M64.5428 53.1234C65.2399 53.1234 65.805 52.5583 65.805 51.8612C65.805 51.1641 65.2399 50.599 64.5428 50.599C63.8458 50.599 63.2807 51.1641 63.2807 51.8612C63.2807 52.5583 63.8458 53.1234 64.5428 53.1234ZM64.5428 54.0701C65.7628 54.0701 66.7517 53.0811 66.7517 51.8612C66.7517 50.6413 65.7628 49.6523 64.5428 49.6523C63.3229 49.6523 62.334 50.6413 62.334 51.8612C62.334 53.0811 63.3229 54.0701 64.5428 54.0701Z" fill="white"/>
<path fill-rule="evenodd" clip-rule="evenodd" d="M52.9491 106.385C53.6462 106.385 54.2113 105.82 54.2113 105.123C54.2113 104.426 53.6462 103.861 52.9491 103.861C52.252 103.861 51.6869 104.426 51.6869 105.123C51.6869 105.82 52.252 106.385 52.9491 106.385ZM52.9491 107.332C54.169 107.332 55.158 106.343 55.158 105.123C55.158 103.903 54.169 102.914 52.9491 102.914C51.7292 102.914 50.7402 103.903 50.7402 105.123C50.7402 106.343 51.7292 107.332 52.9491 107.332Z" fill="white"/>
<path fill-rule="evenodd" clip-rule="evenodd" d="M116.355 70.8773C117.052 70.8773 117.618 70.3122 117.618 69.6151C117.618 68.918 117.052 68.3529 116.355 68.3529C115.658 68.3529 115.093 68.918 115.093 69.6151C115.093 70.3122 115.658 70.8773 116.355 70.8773ZM116.355 71.824C117.575 71.824 118.564 70.8349 118.564 69.6151C118.564 68.3952 117.575 67.4062 116.355 67.4062C115.135 67.4062 114.146 68.3952 114.146 69.6151C114.146 70.8349 115.135 71.824 116.355 71.824Z" fill="white"/>
<path d="M50.1576 53.3451C50.2505 52.9605 50.7975 52.9605 50.8904 53.3451L51.2028 54.6395C51.236 54.7769 51.3433 54.8843 51.4808 54.9174L52.7752 55.2299C53.1598 55.3227 53.1598 55.8698 52.7752 55.9626L51.4808 56.2751C51.3433 56.3083 51.236 56.4156 51.2028 56.553L50.8904 57.8474C50.7975 58.232 50.2505 58.232 50.1576 57.8474L49.8452 56.553C49.812 56.4156 49.7047 56.3083 49.5672 56.2751L48.2728 55.9626C47.8882 55.8698 47.8882 55.3227 48.2728 55.2299L49.5672 54.9174C49.7047 54.8843 49.812 54.7769 49.8452 54.6395L50.1576 53.3451Z" fill="white"/>
<path d="M117.513 53.1287C117.615 52.7071 118.214 52.7071 118.316 53.1287L118.659 54.5475C118.695 54.6982 118.813 54.8158 118.963 54.8522L120.382 55.1947C120.804 55.2964 120.804 55.8961 120.382 55.9978L118.963 56.3403C118.813 56.3767 118.695 56.4943 118.659 56.645L118.316 58.0639C118.214 58.4854 117.615 58.4854 117.513 58.0639L117.17 56.645C117.134 56.4943 117.016 56.3767 116.866 56.3403L115.447 55.9978C115.026 55.8961 115.026 55.2964 115.447 55.1947L116.866 54.8522C117.016 54.8158 117.134 54.6982 117.17 54.5475L117.513 53.1287Z" fill="url(#paint2_linear_2992_4106)"/>
<path d="M54.3735 114.594C54.8532 114.517 55.2362 114.988 55.0629 115.442L53.8929 118.506C53.7196 118.96 53.12 119.056 52.8136 118.679L50.7455 116.134C50.4391 115.757 50.6558 115.19 51.1355 115.113L54.3735 114.594Z" fill="url(#paint3_linear_2992_4106)"/>
<path d="M111.964 106.177C111.844 105.706 112.278 105.282 112.746 105.413L115.903 106.3C116.37 106.432 116.521 107.02 116.173 107.359L113.826 109.65C113.478 109.989 112.894 109.825 112.774 109.354L111.964 106.177Z" fill="url(#paint4_linear_2992_4106)"/>
<path d="M100.563 90.1829L72.4298 79.9431C70.2732 79.1583 67.8887 80.2702 67.1039 82.4268L60.4627 100.673C59.6778 102.83 60.7897 105.214 62.9461 105.999L91.0794 116.239C93.2359 117.023 95.6203 115.912 96.4051 113.755L103.046 95.5086C103.831 93.3521 102.719 90.9677 100.563 90.1829Z" fill="url(#paint5_linear_2992_4106)"/>
<path d="M99.4203 95.8339L107.731 83.8632C109.04 81.9781 108.572 79.3889 106.687 78.0802L94.7167 69.7697C92.8315 68.4609 90.2424 68.9282 88.9337 70.8132L80.6232 82.7839C79.3145 84.669 79.7815 87.2581 81.6667 88.5668L93.6373 96.8773C95.5225 98.186 98.1116 97.7187 99.4203 95.8339Z" fill="url(#paint6_linear_2992_4106)"/>
<path d="M89.9592 86.3075C89.4508 87.0083 88.474 87.1633 87.7733 86.6546C87.0726 86.1463 86.9179 85.1695 87.4262 84.4688C87.9349 83.768 88.9117 83.613 89.6124 84.1217C90.3128 84.6304 90.4679 85.6072 89.9592 86.3075Z" fill="url(#paint7_linear_2992_4106)"/>
<path d="M94.5828 79.9261L93.6158 79.2246L88.998 85.5924L89.9651 86.2938L94.5828 79.9261Z" fill="url(#paint8_linear_2992_4106)"/>
<path d="M95.3929 87.4384C94.8842 88.1391 93.9074 88.2942 93.207 87.7855C92.5063 87.2772 92.3513 86.3004 92.8599 85.5996C93.3683 84.8989 94.3451 84.7438 95.0458 85.2525C95.7465 85.7612 95.9016 86.738 95.3929 87.4384Z" fill="url(#paint9_linear_2992_4106)"/>
<path d="M100.027 81.0527L99.0604 80.3516L94.4434 86.72L95.4107 87.4211L100.027 81.0527Z" fill="url(#paint10_linear_2992_4106)"/>
<path d="M100.014 81.0699L93.002 80.0771L93.6179 79.2246L100.629 80.2206L100.014 81.0699Z" fill="url(#paint11_linear_2992_4106)"/>
<path d="M98.8506 82.6734L91.8379 81.6807L92.4538 80.8281L99.4683 81.8252L98.8506 82.6734Z" fill="url(#paint12_linear_2992_4106)"/>
<path d="M93.2667 69.338L90.833 58.0626C90.3489 55.8194 88.1377 54.3934 85.8946 54.8776L71.1504 58.06C68.9073 58.5442 67.4813 60.7552 67.9655 62.9984L70.3992 74.2737C70.8834 76.5168 73.0942 77.9429 75.3377 77.4589L90.0815 74.2763C92.325 73.7922 93.7508 71.5813 93.2667 69.338Z" fill="url(#paint13_linear_2992_4106)"/>
<path d="M93.0738 68.1789L84.8089 61.543L81.6136 67.8424L78.2477 65.9018L73.5941 72.3798L70.1035 73.132L70.2697 73.9131C70.8307 76.5062 73.3861 78.1559 75.9792 77.5946L89.5542 74.6653C92.1473 74.1044 93.797 71.549 93.2357 68.956L93.0698 68.1789H93.0738Z" fill="url(#paint14_linear_2992_4106)"/>
<path opacity="0.9" d="M73.5108 65.15C74.8032 65.1167 75.6384 63.8203 75.1355 62.6319C74.8529 61.967 74.1757 61.5307 73.4525 61.5473C72.1605 61.5806 71.325 62.877 71.8279 64.0654C72.1105 64.7303 72.7877 65.1666 73.5108 65.15Z" fill="white"/>
<path d="M95.9687 113.088C95.3937 115.505 92.8397 116.881 90.5049 116.031L62.4242 105.81C60.4418 105.089 59.3147 102.997 59.8029 100.944L63.7906 84.1818C64.3656 81.7645 66.9194 80.3887 69.2542 81.2387L97.335 91.4594C99.3172 92.1808 100.444 94.2732 99.9564 96.3257L95.9687 113.088Z" fill="url(#paint15_linear_2992_4106)"/>
<defs>
<filter id="filter0_f_2992_4106" x="0" y="0" width="168.869" height="168.869" filterUnits="userSpaceOnUse" color-interpolation-filters="sRGB">
<feFlood flood-opacity="0" result="BackgroundImageFix"/>
<feBlend mode="normal" in="SourceGraphic" in2="BackgroundImageFix" result="shape"/>
<feGaussianBlur stdDeviation="27" result="effect1_foregroundBlur_2992_4106"/>
</filter>
<linearGradient id="paint0_linear_2992_4106" x1="54.394" y1="42.7695" x2="117.995" y2="56.009" gradientUnits="userSpaceOnUse">
<stop stop-color="#A259FF"/>
<stop offset="1" stop-color="#3B3B3B"/>
</linearGradient>
<linearGradient id="paint1_linear_2992_4106" x1="119.58" y1="89.5072" x2="96.9326" y2="128.545" gradientUnits="userSpaceOnUse">
<stop stop-color="#A259FF" stop-opacity="0"/>
<stop offset="1" stop-color="#FF6250"/>
</linearGradient>
<linearGradient id="paint2_linear_2992_4106" x1="119.105" y1="54.0497" x2="124.442" y2="58.2416" gradientUnits="userSpaceOnUse">
<stop stop-color="#A259FF"/>
<stop offset="1" stop-color="#377DF7"/>
</linearGradient>
<linearGradient id="paint3_linear_2992_4106" x1="54.8682" y1="116.148" x2="54.6899" y2="121.458" gradientUnits="userSpaceOnUse">
<stop stop-color="#A259FF"/>
<stop offset="1" stop-color="#377DF7"/>
</linearGradient>
<linearGradient id="paint4_linear_2992_4106" x1="113.466" y1="105.543" x2="118.77" y2="105.239" gradientUnits="userSpaceOnUse">
<stop stop-color="#A259FF"/>
<stop offset="1" stop-color="#377DF7"/>
</linearGradient>
<linearGradient id="paint5_linear_2992_4106" x1="92.0732" y1="93.6499" x2="107.593" y2="130.742" gradientUnits="userSpaceOnUse">
<stop stop-color="#A259FF"/>
<stop offset="0.416667" stop-color="#A259FF" stop-opacity="0"/>
</linearGradient>
<linearGradient id="paint6_linear_2992_4106" x1="96.6083" y1="90.9672" x2="69.9466" y2="99.1603" gradientUnits="userSpaceOnUse">
<stop stop-color="#FF7262"/>
<stop offset="0.317708" stop-color="#A259FF"/>
</linearGradient>
<linearGradient id="paint7_linear_2992_4106" x1="92.4171" y1="79.0561" x2="95.3722" y2="85.2804" gradientUnits="userSpaceOnUse">
<stop stop-color="#3B3B3B"/>
<stop offset="1" stop-color="#A259FF"/>
</linearGradient>
<linearGradient id="paint8_linear_2992_4106" x1="102.855" y1="68.3685" x2="105.461" y2="70.9261" gradientUnits="userSpaceOnUse">
<stop stop-color="#3B3B3B"/>
<stop offset="1" stop-color="#A259FF"/>
</linearGradient>
<linearGradient id="paint9_linear_2992_4106" x1="97.8509" y1="80.1873" x2="100.806" y2="86.4112" gradientUnits="userSpaceOnUse">
<stop stop-color="#3B3B3B"/>
<stop offset="1" stop-color="#A259FF"/>
</linearGradient>
<linearGradient id="paint10_linear_2992_4106" x1="108.298" y1="69.4936" x2="110.904" y2="72.0508" gradientUnits="userSpaceOnUse">
<stop stop-color="#3B3B3B"/>
<stop offset="1" stop-color="#A259FF"/>
</linearGradient>
<linearGradient id="paint11_linear_2992_4106" x1="101.657" y1="75.8373" x2="101.55" y2="83.159" gradientUnits="userSpaceOnUse">
<stop stop-color="#3B3B3B"/>
<stop offset="1" stop-color="#A259FF"/>
</linearGradient>
<linearGradient id="paint12_linear_2992_4106" x1="100.496" y1="77.4419" x2="100.388" y2="84.7636" gradientUnits="userSpaceOnUse">
<stop stop-color="#3B3B3B"/>
<stop offset="1" stop-color="#A259FF"/>
</linearGradient>
<linearGradient id="paint13_linear_2992_4106" x1="83.9178" y1="57.9484" x2="88.6229" y2="73.327" gradientUnits="userSpaceOnUse">
<stop stop-color="#FF7262"/>
<stop offset="1" stop-color="#A259FF"/>
</linearGradient>
<linearGradient id="paint14_linear_2992_4106" x1="80.5926" y1="83.7113" x2="75.4817" y2="64.8329" gradientUnits="userSpaceOnUse">
<stop stop-color="#A259FF"/>
<stop offset="1" stop-color="white"/>
</linearGradient>
<linearGradient id="paint15_linear_2992_4106" x1="89.2412" y1="107.916" x2="69.697" y2="58.1903" gradientUnits="userSpaceOnUse">
<stop stop-color="#A259FF"/>
<stop offset="0.666667" stop-color="white"/>
</linearGradient>
</defs>
</svg>
